<?xml version="1.0" encoding="utf-8"?>
<!-- Generator: Adobe Illustrator 28.3.0, SVG Export Plug-In . SVG Version: 6.00 Build 0)  -->
<svg version="1.1" id="Layer_2_00000041990319909807586200000007219921385291765945_"
	 xmlns="http://www.w3.org/2000/svg" xmlns:xlink="http://www.w3.org/1999/xlink" x="0px" y="0px" viewBox="0 0 799.2 339.8"
	 style="enable-background:new 0 0 799.2 339.8;" xml:space="preserve">
<style type="text/css">
	.st0{font-family:'Times-Roman';}
	.st1{font-size:20px;}
	.st2{fill:none;stroke:#231F20;stroke-miterlimit:10;}
	.st3{fill:#231F20;}
	.st4{font-family:'ArialMT';}
	.st5{font-size:0.1px;}
	.st6{fill:none;stroke:#0E0D0D;stroke-width:0.9;stroke-miterlimit:10;}
	.st7{fill:none;stroke:#0E0D0D;stroke-width:0.8;stroke-miterlimit:10;}
	.st8{enable-background:new    ;}
	.st9{fill:#0E0D0D;}
	.st10{fill:#8DA742;}
	.st11{fill:#F7D52D;}
	.st12{fill:#0F2D15;}
</style>
<g id="Layer_13">
	<g id="Layer_17">
		<text transform="matrix(1 0 0 1 784.7 194.3)" class="st0 st1">X</text>
		<text transform="matrix(1 0 0 1 784.7 72.8)" class="st0 st1">X</text>
		<text transform="matrix(1 0 0 1 265.7 16.6)" class="st0 st1">X</text>
		<text transform="matrix(1 0 0 1 22.1 16.6)" class="st0 st1">X</text>
		<g id="Dimensions">
			<g id="Manual_Dimension">
				<line class="st2" x1="699.9" y1="218.5" x2="783.2" y2="218.5"/>
				<line class="st2" x1="699.9" y1="158.4" x2="783.2" y2="158.4"/>
				<text transform="matrix(6.123234e-17 -1 1 6.123234e-17 789.3 188.5)" class="st3 st4 st5"> 60 </text>
				<g>
					<line class="st2" x1="779.2" y1="162.5" x2="779.2" y2="214.4"/>
					<path class="st3" d="M779.2,163.4l1.8,1.1l0,0l-1.2-3c-0.2-1-0.5-2-0.7-3.1c-0.2,1-0.5,2-0.7,3.1l-1.2,2.9l0,0l1.8-1H779.2z"/>
					<path class="st3" d="M779.2,213.5l1.8-1.1l0,0l-1.2,3c-0.2,1-0.5,2-0.7,3.1c-0.2-1-0.5-2-0.7-3.1l-1.2-2.9l0,0l1.8,1H779.2z"/>
				</g>
			</g>
			<g id="Manual_Dimension-2">
				<line class="st2" x1="699.9" y1="96.4" x2="783.2" y2="96.4"/>
				<line class="st2" x1="699.9" y1="38.2" x2="783.2" y2="38.2"/>
				<text transform="matrix(6.123234e-17 -1 1 6.123234e-17 789.3 67.4004)" class="st3 st4 st5"> 60 </text>
				<g>
					<line class="st2" x1="779.2" y1="42.2" x2="779.2" y2="92.4"/>
					<path class="st3" d="M779.2,43.1l1.8,1.1l0,0l-1.1-3c-0.2-1-0.4-2-0.7-3c-0.2,1-0.4,2-0.7,3l-1.1,2.9l0,0L779.2,43.1z"/>
					<path class="st3" d="M779.2,91.5l1.8-1.1l0,0l-1.1,3l-0.7,3l-0.7-3l-1.1-2.9l0,0L779.2,91.5z"/>
				</g>
			</g>
			<g id="Manual_Dimension-3">
				<line class="st2" x1="304.2" y1="36" x2="304.2" y2="14.6"/>
				<line class="st2" x1="245" y1="36" x2="245" y2="14.6"/>
				<text transform="matrix(1 0 0 1 274.5 8.6)" class="st3 st4 st5"> 59 </text>
				<g>
					<line class="st2" x1="249.1" y1="18.6" x2="300.1" y2="18.6"/>
					<path class="st3" d="M250,18.6l1.1-1.8l0,0l-2.9,1.1c-1,0.2-2,0.5-3.1,0.7c1,0.2,2,0.5,3.1,0.7l2.9,1.2l0,0l-1.1-1.8V18.6z"/>
					<path class="st3" d="M299.2,18.6l-1.1-1.8l0,0l2.9,1.1c1,0.2,2,0.5,3.1,0.7c-1,0.2-2,0.5-3.1,0.7l-2.9,1.2l0,0l1.1-1.8V18.6z"
						/>
				</g>
			</g>
			<g id="Manual_Dimension-4">
				<line class="st2" x1="60.6" y1="36" x2="60.6" y2="14.6"/>
				<line class="st2" x1="1.5" y1="36" x2="1.5" y2="14.6"/>
				<text transform="matrix(1 0 0 1 31 8.6)" class="st3 st4 st5"> 59 </text>
				<g>
					<line class="st2" x1="5.5" y1="18.6" x2="56.6" y2="18.6"/>
					<path class="st3" d="M6.4,18.6l1.1-1.8l0,0l-2.9,1.1c-1,0.2-2,0.5-3.1,0.7c1,0.2,2,0.5,3.1,0.7l2.9,1.2l0,0l-1.1-1.8V18.6z"/>
					<path class="st3" d="M55.7,18.6l-1.1-1.8l0,0l2.9,1.1c1,0.2,2,0.5,3.1,0.7c-1,0.2-2,0.5-3.1,0.7l-2.9,1.2l0,0l1.1-1.8V18.6z"/>
				</g>
			</g>
		</g>
	</g>
	<g id="Layer_18">
		<line class="st6" x1="1.2" y1="96.7" x2="757.3" y2="96.7"/>
		<line class="st6" x1="244.8" y1="157.6" x2="757.3" y2="157.6"/>
		<line class="st6" x1="244.8" y1="219.4" x2="757.3" y2="219.4"/>
		<line class="st6" x1="0.6" y1="37.4" x2="756.8" y2="37.4"/>
		<line class="st6" x1="1.2" y1="280.3" x2="757.3" y2="280.3"/>
		<line class="st6" x1="1.2" y1="339.4" x2="757.3" y2="339.4"/>
		<line class="st7" x1="757.7" y1="338.2" x2="757.7" y2="38.2"/>
		<line class="st7" x1="697.5" y1="338.4" x2="697.5" y2="38.4"/>
		<line class="st7" x1="304.2" y1="338.2" x2="304.2" y2="38.2"/>
		<line class="st7" x1="245" y1="338.4" x2="245" y2="38.4"/>
		<line class="st7" x1="60.6" y1="338.2" x2="60.6" y2="38.2"/>
		<line class="st7" x1="0.4" y1="338.4" x2="0.4" y2="38.4"/>
	</g>
	<g>
		<g class="st8">
			<path class="st9" d="M329.8,218c-1.4,0-2.5-0.3-3.4-0.9c-0.8-0.6-1.4-1.2-1.8-1.9c-0.4-0.7-0.6-1.2-0.7-1.5L308.5,169
				c-0.7-2.2-0.8-3.9-0.3-5c0.5-1.1,1.9-2.1,4.3-2.9c1.5-0.5,2.8-0.7,3.7-0.7c1,0.1,1.7,0.5,2.4,1.2c0.6,0.7,1.2,1.9,1.7,3.4
				l10.2,30.3l8.6-30c0.2-0.5,0.4-1.2,0.8-1.9c0.4-0.7,0.9-1.3,1.8-1.9c0.8-0.5,2-0.8,3.4-0.8c1.7,0,3,0.3,3.8,0.9
				c0.8,0.6,1.4,1.3,1.8,2c0.3,0.7,0.6,1.3,0.7,1.7l8.6,30.2l10.2-30.5c0.5-1.5,1.1-2.7,1.7-3.4c0.6-0.7,1.4-1.2,2.5-1.3
				c1-0.1,2.3,0.1,3.8,0.7c1.6,0.6,2.7,1.2,3.4,1.9c0.7,0.7,1,1.5,1.1,2.4c0,1-0.2,2.2-0.7,3.7l-15.3,44.7c-0.1,0.3-0.3,0.8-0.7,1.5
				c-0.4,0.7-0.9,1.3-1.8,1.9c-0.8,0.6-2,0.9-3.4,0.9c-1.5,0-2.7-0.3-3.6-1c-0.8-0.7-1.5-1.4-1.8-2.1c-0.4-0.7-0.6-1.2-0.7-1.5
				l-9.4-30.6l-9.4,30.6c-0.1,0.3-0.3,0.8-0.7,1.6c-0.4,0.8-1,1.5-1.8,2.1C332.6,217.6,331.4,218,329.8,218z"/>
			<path class="st9" d="M421.3,218c-2,0-3.5-0.4-4.5-1.1c-1-0.7-1.4-1.6-1.4-2.6l0.8-1.4c-0.3,0.5-1,1.2-1.9,2
				c-0.9,0.8-2.1,1.5-3.6,2.1c-1.5,0.6-3.3,0.9-5.5,0.9c-2.5,0-4.9-0.5-7.2-1.6c-2.3-1.1-4.3-2.6-6-4.6c-1.8-1.9-3.1-4.1-4.2-6.6
				c-1-2.5-1.6-5.1-1.6-7.8c0-2.7,0.5-5.2,1.6-7.7c1-2.4,2.4-4.6,4.2-6.5c1.8-1.9,3.8-3.4,6-4.5c2.2-1.1,4.6-1.6,7.1-1.6
				c2,0,3.7,0.3,5.2,0.9c1.4,0.6,2.6,1.2,3.6,2c1,0.8,1.7,1.5,2.2,2.2l-0.7-1.1c0-1.3,0.5-2.3,1.4-3c1-0.7,2.5-1,4.6-1
				c2,0,3.4,0.3,4.2,0.9c0.8,0.6,1.4,1.4,1.6,2.4c0.2,1,0.3,2,0.3,3.1v28.3c0,1-0.1,2-0.3,3c-0.2,1-0.7,1.8-1.6,2.3
				C424.7,217.7,423.3,218,421.3,218z M406.9,205.7c1.5,0,2.8-0.4,3.9-1.1c1.1-0.7,2.1-1.7,2.8-3c0.7-1.3,1.1-2.7,1.1-4.2
				c0-1.6-0.4-3-1.1-4.2c-0.7-1.2-1.7-2.2-2.9-2.9c-1.2-0.7-2.5-1.1-4-1.1c-1.5,0-2.9,0.4-4.1,1.1c-1.2,0.7-2.2,1.7-3,3
				c-0.7,1.3-1.1,2.7-1.1,4.3c0,1.5,0.4,2.8,1.1,4.1c0.7,1.2,1.7,2.2,3,3C404,205.4,405.4,205.7,406.9,205.7z"/>
			<path class="st9" d="M451.5,218c-2.5,0-4.9-0.5-7.1-1.6c-2.2-1.1-4.2-2.6-6-4.5c-1.8-1.9-3.1-4.1-4.1-6.6c-1-2.5-1.5-5.1-1.5-7.9
				c0-2.7,0.5-5.2,1.5-7.7c1-2.4,2.4-4.6,4.2-6.5c1.8-1.9,3.8-3.4,6-4.5c2.2-1.1,4.6-1.6,7.1-1.6c2.6,0,4.9,0.5,6.9,1.6
				c2,1.1,3.7,2.5,5,4.4c1.3,1.9,2.4,4,3.1,6.5c0.7,2.5,1.1,5,1.1,7.7c0,2.8-0.3,5.4-1,7.9c-0.7,2.5-1.7,4.6-3,6.6
				c-1.4,1.9-3.1,3.4-5.1,4.6C456.5,217.4,454.2,218,451.5,218z M453.2,205.8c1.5,0,2.8-0.4,4-1.1s2.1-1.7,2.9-3
				c0.7-1.3,1.1-2.7,1.1-4.2c0-1.5-0.4-2.9-1.1-4.1c-0.7-1.2-1.7-2.2-2.9-3c-1.2-0.7-2.6-1.1-4.1-1.1c-1.5,0-2.8,0.4-4.1,1.1
				c-1.2,0.7-2.2,1.7-2.9,3c-0.7,1.3-1,2.7-1,4.2c0,1.5,0.4,2.9,1.1,4.2c0.7,1.3,1.7,2.3,3,3C450.4,205.5,451.7,205.8,453.2,205.8z
				 M467.4,218c-1.9,0-3.2-0.3-4.1-0.9s-1.5-1.5-1.8-2.8v-49.7c0-1,0.1-2,0.2-3c0.1-1,0.6-1.7,1.4-2.3s2.2-0.9,4.2-0.9
				c2.1,0,3.5,0.3,4.3,0.9c0.8,0.6,1.3,1.3,1.6,2.3c0.2,0.9,0.3,1.9,0.3,3v47.2c0,1-0.1,2-0.3,3c-0.2,1-0.7,1.7-1.6,2.3
				C470.9,217.7,469.5,218,467.4,218z"/>
			<path class="st9" d="M497.8,218c-2.5,0-4.9-0.5-7.1-1.6c-2.2-1.1-4.2-2.6-6-4.5c-1.8-1.9-3.1-4.1-4.1-6.6c-1-2.5-1.5-5.1-1.5-7.9
				c0-2.7,0.5-5.2,1.5-7.7c1-2.4,2.4-4.6,4.2-6.5c1.8-1.9,3.8-3.4,6-4.5c2.2-1.1,4.6-1.6,7.1-1.6c2.6,0,4.9,0.5,6.9,1.6
				c2,1.1,3.7,2.5,5,4.4c1.3,1.9,2.4,4,3.1,6.5c0.7,2.5,1.1,5,1.1,7.7c0,2.8-0.3,5.4-1,7.9s-1.7,4.6-3,6.6c-1.4,1.9-3.1,3.4-5.1,4.6
				C502.8,217.4,500.4,218,497.8,218z M499.4,205.8c1.5,0,2.8-0.4,4-1.1c1.2-0.7,2.1-1.7,2.9-3c0.7-1.3,1.1-2.7,1.1-4.2
				c0-1.5-0.4-2.9-1.1-4.1c-0.7-1.2-1.7-2.2-2.9-3c-1.2-0.7-2.6-1.1-4.1-1.1c-1.5,0-2.8,0.4-4.1,1.1c-1.2,0.7-2.2,1.7-2.9,3
				c-0.7,1.3-1,2.7-1,4.2c0,1.5,0.4,2.9,1.1,4.2c0.7,1.3,1.7,2.3,3,3C496.6,205.5,498,205.8,499.4,205.8z M513.7,218
				c-1.9,0-3.2-0.3-4.1-0.9c-0.9-0.6-1.5-1.5-1.8-2.8v-49.7c0-1,0.1-2,0.2-3c0.1-1,0.6-1.7,1.4-2.3c0.8-0.6,2.2-0.9,4.2-0.9
				c2.1,0,3.5,0.3,4.3,0.9c0.8,0.6,1.3,1.3,1.6,2.3c0.2,0.9,0.3,1.9,0.3,3v47.2c0,1-0.1,2-0.3,3c-0.2,1-0.7,1.7-1.6,2.3
				C517.1,217.7,515.7,218,513.7,218z"/>
			<path class="st9" d="M542.2,218c-2.2,0-4.2-0.1-6-0.3c-1.8-0.2-3.2-0.7-4.4-1.3c-1.2-0.7-2.2-1.6-3-2.7c-0.8-1.2-1.3-2.7-1.7-4.5
				c-0.4-1.8-0.6-4.1-0.6-6.8v-37.9c0-1.1,0.1-2.1,0.3-3c0.2-0.9,0.8-1.7,1.6-2.3c0.8-0.6,2.3-0.9,4.3-0.9c2,0,3.4,0.3,4.2,0.9
				s1.4,1.4,1.6,2.3c0.2,0.9,0.3,1.9,0.3,3v37.3c0,0.9,0,1.6,0.1,2.2c0.1,0.6,0.2,1,0.5,1.4s0.6,0.5,1,0.7c0.4,0.1,1,0.2,1.7,0.2
				c0.7,0,1.3,0.1,2,0.2s1.3,0.7,1.8,1.5c0.5,0.8,0.7,2.2,0.7,4.1c0,2-0.2,3.4-0.7,4.3c-0.5,0.9-1.1,1.4-1.8,1.6
				S542.9,218,542.2,218z"/>
			<path class="st9" d="M571.5,218.8c-3.8,0-7.1-0.6-9.9-1.9c-2.8-1.3-5-2.9-6.8-5c-1.8-2-3.1-4.3-3.9-6.8c-0.9-2.5-1.3-5-1.3-7.5
				c0-4.1,0.9-7.7,2.8-10.9c1.9-3.2,4.4-5.7,7.7-7.5c3.3-1.8,7.1-2.7,11.4-2.7c3.2,0,5.9,0.5,8.2,1.5c2.3,1,4.2,2.3,5.7,3.9
				c1.5,1.6,2.6,3.3,3.4,5.2c0.7,1.9,1.1,3.6,1.1,5.3c0,3-0.7,5.2-2.2,6.7c-1.4,1.5-3.3,2.2-5.5,2.2h-19.5c0.1,1.4,0.6,2.5,1.5,3.5
				c0.9,1,2,1.8,3.4,2.3c1.4,0.5,2.8,0.8,4.3,0.8c1.3,0,2.4-0.1,3.4-0.2c1-0.1,1.9-0.3,2.6-0.6c0.7-0.2,1.4-0.5,1.9-0.7
				s1.1-0.5,1.6-0.6c0.5-0.2,1-0.3,1.4-0.3c0.8-0.1,1.5,0.2,2.2,0.7c0.7,0.5,1.3,1.3,1.9,2.3c0.4,0.6,0.6,1.2,0.8,1.7
				c0.1,0.5,0.2,1.1,0.2,1.6c0,1.4-0.7,2.6-2,3.6c-1.3,1-3.2,1.8-5.7,2.4C577.9,218.5,574.9,218.8,571.5,218.8z M562.7,194.5h13
				c0.8,0,1.4-0.2,1.9-0.5c0.4-0.3,0.7-0.9,0.7-1.8c0-0.9-0.3-1.8-0.9-2.5s-1.4-1.4-2.4-1.8c-1-0.4-2.2-0.6-3.6-0.6
				c-1.6,0-3.1,0.3-4.4,1c-1.3,0.7-2.3,1.5-3.1,2.6C563.1,192.1,562.7,193.2,562.7,194.5z"/>
		</g>
	</g>
	<g>
		<g class="st8">
			<path class="st10" d="M621.9,218.9c-3.9,0-7.6-0.8-11.1-2.3c-3.5-1.5-6.5-3.6-9.1-6.2c-2.6-2.7-4.7-5.7-6.1-9.2
				c-1.5-3.5-2.2-7.3-2.2-11.3c0-4.1,0.7-8,2.2-11.6c1.4-3.6,3.4-6.8,6-9.5s5.5-4.8,8.9-6.4c3.4-1.5,7-2.3,10.8-2.3
				c4,0,7.7,0.8,11.2,2.3c3.5,1.5,6.5,3.6,9.1,6.3c2.6,2.7,4.6,5.8,6.1,9.3c1.5,3.6,2.2,7.4,2.2,11.6c0,4-0.7,7.8-2.2,11.3
				c-1.4,3.6-3.5,6.7-6,9.4c-2.6,2.7-5.5,4.8-8.9,6.3C629.3,218.1,625.7,218.9,621.9,218.9z M621.5,206.4c2.2,0,4.2-0.4,6.1-1.3
				c1.9-0.9,3.6-2.1,5-3.6c1.4-1.5,2.6-3.3,3.4-5.3c0.8-2,1.2-4.2,1.2-6.6c0-2.3-0.4-4.6-1.2-6.6c-0.8-2-2-3.9-3.4-5.4
				c-1.4-1.6-3.1-2.8-5-3.6c-1.9-0.8-3.9-1.3-6.1-1.3c-2.1,0-4.1,0.4-6,1.3c-1.9,0.8-3.6,2-5,3.6c-1.4,1.6-2.6,3.4-3.4,5.4
				c-0.8,2.1-1.3,4.3-1.3,6.6c0,2.3,0.4,4.5,1.3,6.5s2,3.8,3.4,5.4c1.4,1.5,3.1,2.7,5,3.6C617.3,206,619.4,206.4,621.5,206.4z"/>
			<path class="st10" d="M660.7,218c-2,0-3.5-0.3-4.3-0.9c-0.8-0.6-1.4-1.3-1.6-2.3c-0.2-1-0.3-2-0.3-3v-28.9c0-1,0.1-2,0.3-2.9
				c0.2-0.9,0.7-1.6,1.6-2.2c0.9-0.5,2.3-0.8,4.3-0.8c1.7,0,3,0.2,3.9,0.7c0.8,0.5,1.4,1,1.6,1.7s0.4,1.3,0.4,1.8s0.1,1,0.2,1.2
				l-0.5,1.6c0.1-0.8,0.5-1.7,1.3-2.5c0.7-0.8,1.7-1.6,2.8-2.3c1.1-0.7,2.3-1.2,3.6-1.6c1.3-0.4,2.6-0.6,3.8-0.6c2.6,0,5,0.5,7,1.4
				c2,1,3.8,2.3,5.2,4.1c1.4,1.8,2.5,3.9,3.2,6.4c0.7,2.4,1.1,5.1,1.1,8v14.9c0,1-0.1,2-0.3,3c-0.2,1-0.7,1.7-1.6,2.3
				c-0.8,0.5-2.3,0.8-4.4,0.8c-2,0-3.5-0.3-4.3-0.9c-0.9-0.6-1.4-1.3-1.6-2.3c-0.2-1-0.3-2-0.3-3V197c0-1.6-0.3-3-0.9-4.2
				c-0.6-1.1-1.4-2-2.5-2.6c-1.1-0.6-2.4-0.9-4-0.9c-1.6,0-3,0.3-4.1,0.9c-1.1,0.6-2,1.5-2.7,2.7c-0.6,1.1-0.9,2.5-0.9,4.1v14.9
				c0,1-0.1,2-0.3,3c-0.2,1-0.7,1.7-1.6,2.3C664.1,217.7,662.7,218,660.7,218z"/>
		</g>
	</g>
	<g>
		<path class="st9" d="M62,214.6l0.7-4.5c3.5-23.7,23.9-40.9,47.3-40.9c2.3,0,4.6,0.2,6.9,0.5l20.3,3v66.5c0,15.1,7,28.5,18,37.2
			l-52.7-7.7c-12.6-1.8-23.7-8.5-31.4-18.8s-10.9-22.8-9-35.4L62,214.6z"/>
		<path class="st11" d="M202.1,155.6c0-3.9,3.2-7.1,7.1-7.1h28.1c3.9,0,7.1,3.2,7.1,7.1c0,3.9-3.2,7.1-7.1,7.1h-28.1
			C205.3,162.7,202.1,159.5,202.1,155.6z"/>
		<g>
			<path class="st12" d="M177.7,127.4c2.7,0,5,2.2,5,5c0,2.7-2.2,5-5,5s-5-2.2-5-5C172.7,129.7,174.9,127.4,177.7,127.4z"/>
			<path class="st10" d="M145.3,137.5v101.7c0,21.7,17.6,39.3,39.3,39.3s39.3-17.6,39.3-39.3V171h-14.8c-8.5,0-15.4-6.9-15.4-15.4
				s6.9-15.4,15.4-15.4h14.8v-2.7c0-21.7-17.6-39.3-39.3-39.3S145.3,115.8,145.3,137.5L145.3,137.5z M166.2,132.3
				c0-6.4,5.2-11.6,11.6-11.6c6.4,0,11.6,5.2,11.6,11.6c0,6.4-5.2,11.6-11.6,11.6C171.4,143.9,166.2,138.7,166.2,132.3z"/>
		</g>
	</g>
</g>
</svg>
