<?xml version="1.0" encoding="UTF-8"?>
<svg id="Layer_2" data-name="Layer 2" xmlns="http://www.w3.org/2000/svg" xmlns:xlink="http://www.w3.org/1999/xlink" viewBox="0 0 427.7 343.2">
  <defs>
    <style>
      .cls-1 {
        stroke-width: .6px;
      }

      .cls-1, .cls-2, .cls-3, .cls-4, .cls-5, .cls-6, .cls-7 {
        fill: none;
      }

      .cls-1, .cls-2, .cls-3, .cls-5, .cls-6, .cls-7 {
        stroke-miterlimit: 10;
      }

      .cls-1, .cls-2, .cls-3, .cls-6 {
        stroke: #0e0d0d;
      }

      .cls-2 {
        stroke-width: .6px;
      }

      .cls-3 {
        stroke-width: .6px;
      }

      .cls-8 {
        clip-path: url(#clippath);
      }

      .cls-4, .cls-9, .cls-10, .cls-11, .cls-12, .cls-13, .cls-14 {
        stroke-width: 0px;
      }

      .cls-5, .cls-7 {
        stroke: #231f20;
      }

      .cls-6 {
        stroke-width: .5px;
      }

      .cls-9 {
        fill: #8da742;
      }

      .cls-15 {
        font-family: MyriadPro-Regular, 'Myriad Pro';
        font-size: .1px;
      }

      .cls-15, .cls-14 {
        fill: #231f20;
      }

      .cls-10 {
        fill: #f8d62d;
      }

      .cls-11, .cls-16 {
        fill: #000;
      }

      .cls-12 {
        fill: #0f2d15;
      }

      .cls-13 {
        fill: #0e0d0d;
      }

      .cls-16 {
        font-family: Times-Roman, Times;
        font-size: 20px;
      }

      .cls-7 {
        stroke-width: 1.4px;
      }
    </style>
    <clipPath id="clippath">
      <rect class="cls-4" x="123.4" y="78.3" width="184.5" height="182.5"/>
    </clipPath>
  </defs>
  <g id="Layer_13" data-name="Layer 13">
    <g id="Layer_17" data-name="Layer 17">
      <g id="Dimensions">
        <g id="Manual_Dimension" data-name="Manual Dimension">
          <line class="cls-5" x1="350.3" y1="342.2" x2="407.5" y2="342"/>
          <line class="cls-5" x1="350.2" y1="301.6" x2="407.4" y2="301.4"/>
          <text class="cls-15" transform="translate(413.4 321.6) rotate(89.8)"><tspan x="0" y="0" xml:space="preserve"> 41 </tspan></text>
          <g>
            <line class="cls-5" x1="403.4" y1="305.5" x2="403.5" y2="337.9"/>
            <path class="cls-14" d="M403.4,306.4l1.8,1.1h0c0,0-1.2-3-1.2-3-.2-1-.5-2-.7-3.1-.2,1-.4,2-.7,3.1l-1.2,2.9h0c0,0,1.8-1,1.8-1Z"/>
            <path class="cls-14" d="M403.5,337l1.8-1.1h0c0,0-1.2,3-1.2,3-.2,1-.4,2-.7,3.1-.2-1-.5-2-.7-3.1l-1.2-2.9h0c0,0,1.8,1,1.8,1Z"/>
          </g>
        </g>
        <g id="Manual_Dimension-2" data-name="Manual Dimension">
          <line class="cls-5" x1="350.3" y1="77.8" x2="407.5" y2="77.6"/>
          <line class="cls-5" x1="350.2" y1="37.3" x2="407.4" y2="37"/>
          <text class="cls-15" transform="translate(413.4 57.2) rotate(89.8)"><tspan x="0" y="0" xml:space="preserve"> 41 </tspan></text>
          <g>
            <line class="cls-5" x1="403.4" y1="41.1" x2="403.5" y2="73.6"/>
            <path class="cls-14" d="M403.4,42l1.8,1.1h0c0,0-1.2-3-1.2-3-.2-1-.5-2-.7-3.1-.2,1-.4,2-.7,3.1l-1.2,2.9h0c0,0,1.8-1,1.8-1Z"/>
            <path class="cls-14" d="M403.5,72.7l1.8-1.1h0c0,0-1.2,3-1.2,3-.2,1-.4,2-.7,3.1-.2-1-.5-2-.7-3.1l-1.2-2.9h0c0,0,1.8,1,1.8,1Z"/>
          </g>
        </g>
        <g id="Manual_Dimension-3" data-name="Manual Dimension">
          <line class="cls-7" x1="123.3" y1="76.7" x2="122.8" y2="19.5"/>
          <line class="cls-7" x1="42.9" y1="76.8" x2="42.5" y2="19.7"/>
          <text class="cls-15" transform="translate(82.5 13.6) rotate(-.1) scale(2 1) skewX(.2)"><tspan x="0" y="0" xml:space="preserve"> 41 </tspan></text>
          <g>
            <line class="cls-7" x1="48.3" y1="23.7" x2="117.1" y2="23.5"/>
            <path class="cls-14" d="M49.5,23.7l1.5-2.5h0c0,0-4.1,1.6-4.1,1.6-1.4.3-2.9.6-4.3,1,1.4.3,2.9.6,4.3.9l4.1,1.6h0s-1.5-2.6-1.5-2.6Z"/>
            <path class="cls-14" d="M115.9,23.5l-1.5-2.5h0c0,0,4.1,1.6,4.1,1.6,1.4.3,2.9.6,4.3.9-1.4.3-2.9.6-4.3,1l-4.1,1.6h0s1.5-2.6,1.5-2.6Z"/>
          </g>
        </g>
        <g id="Manual_Dimension-4" data-name="Manual Dimension">
          <line class="cls-5" x1="40.3" y1="341.7" x2="21.1" y2="341.7"/>
          <line class="cls-5" x1="40.3" y1="261.4" x2="21.1" y2="261.4"/>
          <text class="cls-15" transform="translate(15.1 301.6) rotate(-90)"><tspan x="0" y="0" xml:space="preserve"> 80 </tspan></text>
          <g>
            <line class="cls-5" x1="25.1" y1="265.4" x2="25.1" y2="337.6"/>
            <path class="cls-14" d="M25.1,266.3l1.8,1.1h0c0,0-1.2-3-1.2-3-.2-1-.5-2-.7-3.1-.2,1-.5,2-.7,3.1l-1.2,2.9h0c0,0,1.8-1,1.8-1Z"/>
            <path class="cls-14" d="M25.1,336.7l1.8-1.1h0c0,0-1.2,3-1.2,3-.2,1-.5,2-.7,3.1-.2-1-.5-2-.7-3.1l-1.2-2.9h0c0,0,1.8,1,1.8,1Z"/>
          </g>
        </g>
        <text class="cls-16" transform="translate(0 308)"><tspan x="0" y="0">2X</tspan></text>
      </g>
    </g>
  </g>
  <g id="Layer_19" data-name="Layer 19">
    <g class="cls-8">
      <g>
        <path class="cls-13" d="M123.9,196l.6-4.5c3.4-24,24.2-41.4,47.6-41.4s4.6.1,7,.5l20.5,2.9v67.3c0,15.2,7.1,28.9,18.2,37.7l-53.2-7.8c-12.7-1.9-23.9-8.6-31.7-19-7.8-10.5-10.9-23-9-35.8Z"/>
        <path class="cls-10" d="M265.1,136.4c0-4,3.2-7.3,7.3-7.3h28.2c3.9,0,7.3,3.2,7.3,7.3s-3.2,7.3-7.3,7.3h-28.2c-3.9,0-7.3-3.2-7.3-7.3Z"/>
        <path class="cls-12" d="M240.6,107.8c2.8,0,5,2.3,5,5s-2.3,5-5,5-5-2.3-5-5,2.3-5,5-5Z"/>
        <path class="cls-9" d="M208,118.2v102.9c0,22,17.8,39.8,39.7,39.8s39.7-17.9,39.7-39.8v-69h-14.9c-8.5,0-15.5-7-15.5-15.6s7-15.6,15.5-15.6h14.9v-2.8c0-22-17.8-39.8-39.7-39.8s-39.7,17.9-39.7,39.8ZM229,112.9c0-6.4,5.2-11.7,11.7-11.7s11.7,5.2,11.7,11.7-5.2,11.7-11.7,11.7-11.7-5.2-11.7-11.7Z"/>
      </g>
    </g>
    <path class="cls-11" d="M140.8,305.4c2.1.8,3.2,1.8,3.2,3.1s-.2,1.2-.6,2.3l-9.2,26.6c0,.2-.2.5-.3.8s-.6.8-1.3,1.3c-.7.5-1.5.8-2.4.8s-1.7-.3-2.4-.8c-.7-.5-1.1-1.1-1.3-1.6l-5.6-16.5c-3.5,10.5-5.3,15.8-5.4,16,0,.2-.2.5-.4.8s-.5.7-.8,1c-.7.7-1.6,1.1-2.6,1.1s-1.9-.2-2.5-.7c-.6-.5-1.1-1-1.3-1.4l-.3-.7-9.2-26.6c-.3-1.1-.5-1.8-.5-2.3,0-1.3,1.1-2.3,3.2-3,.9-.3,1.7-.5,2.5-.5s1.3.3,1.7.8c.4.5.8,1.3,1.1,2.3l5.2,16,5.2-15.7c.4-1.3,1.3-2.3,2.4-2.8.5-.2,1.2-.3,2-.3s1.6.3,2.3.8c.7.5,1.1,1,1.3,1.5l5.5,16.6,5.2-16.1c.3-.7.5-1.3.6-1.6.2-.4.4-.7.9-1,.4-.4,1-.5,1.6-.5s1.4.2,2.2.5Z"/>
    <path class="cls-11" d="M159.6,317.8c.2-1.8,1.4-2.7,3.8-2.7s2.2,0,2.8.3c.6.2,1,.5,1.2,1,.3.5.4.9.4,1.3,0,.4,0,.9,0,1.6v16.7c0,.7,0,1.3,0,1.7,0,.4-.2.8-.4,1.2-.4.8-1.5,1.2-3.3,1.2s-2.9-.2-3.5-.6c-.6-.4-.9-1.1-1-1.9-1.2,1.7-3.1,2.5-5.9,2.5s-5.3-1.3-7.6-3.8c-2.4-2.5-3.5-5.4-3.5-8.8s1.2-6.3,3.5-8.8c2.4-2.5,5-3.8,7.8-3.8s2.1.2,3,.6c.9.4,1.5.8,1.9,1.1.3.3.6.6.9,1ZM150.9,327.7c0,1.1.4,2,1.2,2.9.8.8,1.8,1.2,3,1.2s2.1-.4,2.9-1.3c.8-.9,1.2-1.8,1.2-2.8s-.4-2-1.1-2.9c-.7-.9-1.7-1.3-3-1.3s-2.3.4-3.1,1.3c-.8.9-1.1,1.9-1.1,2.9Z"/>
    <path class="cls-11" d="M188.5,304.6c.3-.5.7-.8,1.3-1,.6-.2,1.4-.3,2.4-.3s1.8,0,2.4.3c.6.2,1,.5,1.2,1,.3.5.4.9.4,1.3,0,.4,0,.9,0,1.6v28.6c0,.7,0,1.3,0,1.7,0,.4-.2.7-.4,1.2-.5.9-1.8,1.3-4.1,1.3s-3.4-.8-3.7-2.3c-1.3,1.5-3.2,2.3-5.6,2.3s-5.5-1.2-7.8-3.7c-2.4-2.5-3.5-5.4-3.5-8.8s1.2-6.3,3.5-8.8c2.4-2.5,5-3.8,7.8-3.8s4.2.8,5.5,2.4v-10c0-.7,0-1.3,0-1.6,0-.4.2-.8.4-1.2ZM180.8,330.6c.8.9,1.8,1.3,3,1.3s2.1-.4,2.9-1.3c.8-.9,1.2-1.8,1.2-2.8s-.4-2-1.1-2.9c-.7-.9-1.7-1.3-3-1.3s-2.3.4-3.1,1.3c-.8.9-1.1,1.8-1.1,2.9s.4,2,1.2,2.9Z"/>
    <path class="cls-11" d="M217,304.6c.3-.5.7-.8,1.3-1,.6-.2,1.4-.3,2.4-.3s1.8,0,2.4.3c.6.2,1,.5,1.2,1,.3.5.4.9.4,1.3,0,.4,0,.9,0,1.6v28.6c0,.7,0,1.3,0,1.7,0,.4-.2.7-.4,1.2-.5.9-1.8,1.3-4.1,1.3s-3.4-.8-3.7-2.3c-1.3,1.5-3.2,2.3-5.6,2.3s-5.5-1.2-7.8-3.7c-2.4-2.5-3.5-5.4-3.5-8.8s1.2-6.3,3.5-8.8c2.4-2.5,5-3.8,7.8-3.8s4.2.8,5.5,2.4v-10c0-.7,0-1.3,0-1.6,0-.4.2-.8.4-1.2ZM209.3,330.6c.8.9,1.8,1.3,3,1.3s2.1-.4,2.9-1.3c.8-.9,1.2-1.8,1.2-2.8s-.4-2-1.1-2.9c-.7-.9-1.7-1.3-3-1.3s-2.3.4-3.1,1.3c-.8.9-1.1,1.8-1.1,2.9s.4,2,1.2,2.9Z"/>
    <path class="cls-11" d="M228.7,307.4c0-.7,0-1.3,0-1.6,0-.4.2-.8.4-1.3.4-.9,1.7-1.3,3.7-1.3s3.1.4,3.6,1.3c.3.5.4.9.4,1.3,0,.4,0,.9,0,1.7v22.2c0,1.1,0,1.9.3,2.2.2.3.6.4,1.2.4s1.1,0,1.3,0c.2,0,.5.2.8.4.6.4,1,1.5,1,3.4s-.3,3.2-1,3.7c-.8.6-2.8.7-5.9.3-2.4-.3-4-1.1-4.8-2.4-.9-1.6-1.3-4.1-1.3-7.5v-22.8Z"/>
    <path class="cls-11" d="M268,324.7c0,1.9-.5,3.4-1.5,4.4-1,.9-2,1.4-3.2,1.4h-11.3c0,.9.5,1.6,1.6,2.2,1,.6,2.1.9,3.1.9,1.8,0,3.3-.2,4.3-.6l.5-.2c.8-.4,1.4-.5,1.9-.5,1,0,1.9.7,2.6,2.2.4.9.6,1.6.6,2.2,0,2.8-3.4,4.3-10.2,4.3s-4.5-.4-6.3-1.2c-1.8-.8-3.2-1.9-4.2-3.3-2-2.6-3-5.5-3-8.7s1.3-7.2,3.9-9.6c2.6-2.4,5.8-3.6,9.7-3.6s7.7,1.6,9.7,4.7c1.1,1.7,1.6,3.5,1.6,5.5ZM258,326.1c1.2,0,1.8-.5,1.8-1.5s-.3-1.3-.9-1.8c-.5-.4-1.3-.7-2.4-.7s-2,.4-3.1,1.3c-1,.8-1.5,1.7-1.5,2.7h6Z"/>
    <path class="cls-9" d="M288.5,304.8c4.7,0,8.8,1.7,12.3,5.1,3.5,3.4,5.2,7.7,5.2,12.7s-1.7,9.3-5,12.9c-3.3,3.5-7.4,5.3-12.2,5.3s-8.9-1.8-12.4-5.3c-3.4-3.5-5.1-7.7-5.1-12.5s.5-5.1,1.4-7.4c1-2.3,2.2-4.3,3.8-5.8,1.6-1.6,3.4-2.8,5.5-3.7s4.2-1.3,6.4-1.3ZM279.8,322.8c0,2.8.9,5.2,2.7,6.9,1.8,1.8,3.9,2.6,6.2,2.6s4.3-.9,6.1-2.6c1.8-1.7,2.7-4,2.7-6.9s-.9-5.2-2.8-7c-1.8-1.8-3.8-2.6-6.1-2.6s-4.3.9-6.1,2.7c-1.8,1.8-2.7,4.1-2.7,6.9Z"/>
    <path class="cls-9" d="M323,315.1c3.2,0,5.8,1.2,7.9,3.7,2.1,2.4,3.2,5.4,3.2,8.9v8.4c0,.7,0,1.3,0,1.7,0,.4-.2.7-.4,1.2-.4.9-1.7,1.3-3.7,1.3s-3.6-.6-3.9-1.8c-.2-.5-.3-1.4-.3-2.4v-8.4c0-1.3-.4-2.3-1.1-3.1-.7-.7-1.7-1.1-3-1.1s-2.3.4-3.1,1.1c-.8.8-1.1,1.8-1.1,3v8.5c0,.7,0,1.3,0,1.7,0,.4-.2.7-.4,1.2-.4.9-1.6,1.3-3.7,1.3s-3.2-.4-3.7-1.3c-.2-.5-.4-.9-.4-1.2,0-.4,0-.9,0-1.7v-16.9c0-.7,0-1.2,0-1.6,0-.4.2-.8.5-1.2.4-.8,1.7-1.2,3.7-1.2s3.1.4,3.6,1.1c.3.5.5,1.2.5,2,.1-.2.4-.5.9-1,.4-.4.9-.7,1.3-1,1.1-.7,2.3-1.1,3.6-1.1Z"/>
    <line class="cls-3" x1="42.3" y1="261.4" x2="389.1" y2="261.4"/>
    <line class="cls-1" x1="42.3" y1="301.8" x2="387.7" y2="301.8"/>
    <line class="cls-3" x1="42.3" y1="37.1" x2="388.9" y2="37.1"/>
    <line class="cls-1" x1="42.3" y1="77.6" x2="388.5" y2="77.6"/>
    <line class="cls-1" x1="43.4" y1="342.3" x2="388.8" y2="342.3"/>
    <line class="cls-2" x1="82.8" y1="342.2" x2="82.8" y2="38.7"/>
    <line class="cls-6" x1="123.3" y1="301.6" x2="123.3" y2="37.7"/>
    <line class="cls-2" x1="42.2" y1="343.2" x2="42.2" y2="37.7"/>
    <line class="cls-2" x1="82.7" y1="340.3" x2="82.7" y2="36.8"/>
    <line class="cls-2" x1="348.1" y1="342.2" x2="348.1" y2="38.7"/>
    <line class="cls-2" x1="388.5" y1="341.2" x2="388.5" y2="37.7"/>
    <line class="cls-6" x1="307.5" y1="301.6" x2="307.5" y2="37.7"/>
    <line class="cls-2" x1="348" y1="340.3" x2="348" y2="36.8"/>
    <text class="cls-16" transform="translate(408.8 327.8)"><tspan x="0" y="0">X</tspan></text>
    <text class="cls-16" transform="translate(408.8 63.5)"><tspan x="0" y="0">X</tspan></text>
    <text class="cls-16" transform="translate(70.1 16.6)"><tspan x="0" y="0">2X</tspan></text>
  </g>
</svg>